# xmcd
#
# Track frame offsets:
#	150
#	1303
#	3277
#	4679
#	6307
#	7757
#	9248
#	10738
#	12786
#	13859
#	15653
#	17705
#	20075
#	21428
#	23352
#	24989
#	28637
#	31828
#	34859
#	40331
#	42343
#	45877
#	49144
#	60435
#	65907
#	71913
#	75323
#	76820
#	78681
#	80440
#	92452
#	101646
#	114751
#	117713
#	120326
#	122525
#	127716
#	133247
#	137651
#	142918
#	147400
#	151176
#	154656
#	160168
#	162206
#	163904
#	167848
#	171250
#	174814
#	176762
#	182064
#	184011
#	185706
#	192854
#	194780
#	196627
#	198644
#	200652
#	205419
#	207340
#
# Disc length: 2794 seconds
#
# Revision: 1
# Processed by: cddbd v1.5.2PL0 Copyright (c) Steve Scherf et al.
# Submitted via: audiograbber 1.83.01
#
DISCID=050ae83c
DTITLE=Janet Davis - Back-Up Banjo
DYEAR=1981
DGENRE=Bluegrass
TTITLE0=Introduction  and Tuning (pg. 5)
TTITLE1=Rhythm Exercises #1 (pg. 9)
TTITLE2=Rhythm Exercises #2 (pg. 9)
TTITLE3=Rhythm Exercises #3 (pg. 9)
TTITLE4=Rhythm Exercises #4 (pg. 9)
TTITLE5=Rhythm Exercises #5 (pg. 9)
TTITLE6=Rhythm Exercises #7 (pg. 9)
TTITLE7=Basic Vamping Pattern #1 (pg. 17)
TTITLE8=Basic Vamping Pattern #2 (pg. 17)
TTITLE9=Chord Progression (pg. 18)
TTITLE10=Embellishment #1-3 (pg. 19)
TTITLE11=Embellishment #4-9 (pg. 19)
TTITLE12=Embellishment #10-12 (pg. 19)
TTITLE13=Chord Progression Pattern #2 (pg. 20)
TTITLE14=Chord Progression Pattern #10 and 2 (pg. 20)
TTITLE15=Embellishment (pg. 21)
TTITLE16=Basic Vamping Pattern and Variation (pg. 22)
TTITLE17=Embellishment Using Passing Tones (pg. 23)
TTITLE18=Patterns #1-6 (pg. 24)
TTITLE19=Patterns #7-8 (pg. 25)
TTITLE20=Patterns #1-4 (pg. 25)
TTITLE21=Chord Progression #1 and 2 (pg. 26)
TTITLE22=G Chord Fill-in Licks (pg. 28)
TTITLE23=C Chord Fill-in Licks (pg. 29)
TTITLE24=D Chord Fill-in Licks (pg. 29)
TTITLE25=Chord Progression w/#Fill-in Licks (pg. 28)
TTITLE26=Fill-in Licks to G Chord (pg. 31)
TTITLE27=Fill-in Licks to C Chord (pg. 31)
TTITLE28=Songs Demonstrations (pg. 32)
TTITLE29=Wabash Cannonball (pg. 33)
TTITLE30=John Hardy (pg. 39)
TTITLE31=Salt River (pg. 49)
TTITLE32=Scruggs-Style Rolls (pg. 54)
TTITLE33=Chord Progression  w/Forward Roll (pg. 55)
TTITLE34=Chord Progression  w/Several Rolls (pg. 55)
TTITLE35=Scruggs-Style Deep Tones (pg. 57)
TTITLE36=Scruggs-Style Backward Roll (pg. 58)
TTITLE37=Scruggs-Style Mixd Roll (pg. 59)
TTITLE38=Scruggs-Style Forward-Reverse Roll (pg. 60)
TTITLE39=Variation/Forward-Reverse-Roll (pg. 61)
TTITLE40=Common G Chord Patterns (pg. 62)
TTITLE41=Common C Chord Patterns (pg. 62)
TTITLE42=Common D Chord Patterns (pg. 63)
TTITLE43=Chord Progression #1 (pg. 64)
TTITLE44=Chord Progression #2 (pg. 64)
TTITLE45=Passing-Tones G Chord (pg. 65)
TTITLE46=Passing-Tones C Chord (pg. 65)
TTITLE47=Passing-Tones D Chord (pg. 66)
TTITLE48=Chord Progression (pg. 66)
TTITLE49=Roll Patterns Using Passing-Tones (pg. 67)
TTITLE50=Chord Progression #1 (pg. 68)
TTITLE51=Chord Progression #2 (pg. 68)
TTITLE52=Licks Using Passing-Tones (pg. 69)
TTITLE53=Chord Progression #1 (pg. 71)
TTITLE54=Chord Progression #2 (pg. 71)
TTITLE55=Fill-in Licks Progression #1 (72)
TTITLE56=Fill-in Licks Progression #2 (72)
TTITLE57=Rhythmic Embellishment (pg. 73)
TTITLE58=Wabash Cannonball (pg. 75)
TTITLE59=John Hardy (pg. 76)
EXTD=
EXTT0=
EXTT1=
EXTT2=
EXTT3=
EXTT4=
EXTT5=
EXTT6=
EXTT7=
EXTT8=
EXTT9=
EXTT10=
EXTT11=
EXTT12=
EXTT13=
EXTT14=
EXTT15=
EXTT16=
EXTT17=
EXTT18=
EXTT19=
EXTT20=
EXTT21=
EXTT22=
EXTT23=
EXTT24=
EXTT25=
EXTT26=
EXTT27=
EXTT28=
EXTT29=
EXTT30=
EXTT31=
EXTT32=
EXTT33=
EXTT34=
EXTT35=
EXTT36=
EXTT37=
EXTT38=
EXTT39=
EXTT40=
EXTT41=
EXTT42=
EXTT43=
EXTT44=
EXTT45=
EXTT46=
EXTT47=
EXTT48=
EXTT49=
EXTT50=
EXTT51=
EXTT52=
EXTT53=
EXTT54=
EXTT55=
EXTT56=
EXTT57=
EXTT58=
EXTT59=
PLAYORDER=
